<?xml version="1.0" standalone="no"?>
<!DOCTYPE svg PUBLIC "-//W3C//DTD SVG 20010904//EN"
 "http://www.w3.org/TR/2001/REC-SVG-20010904/DTD/svg10.dtd">
<svg version="1.0" xmlns="http://www.w3.org/2000/svg"
 width="500.000000pt" height="500.000000pt" viewBox="0 0 500.000000 500.000000"
 preserveAspectRatio="xMidYMid meet">

<g transform="translate(0.000000,500.000000) scale(0.100000,-0.100000)"
fill="#000000" stroke="none">
<path d="M1940 3121 c-56 -12 -142 -59 -180 -99 -85 -89 -118 -157 -124 -256
-3 -39 -3 -57 0 -41 11 73 39 167 56 185 10 10 18 23 18 28 0 16 104 113 140
132 128 65 264 64 376 -2 31 -18 84 -87 84 -108 0 -5 5 -10 12 -10 6 0 8 -3 5
-7 -4 -3 -1 -13 6 -21 10 -13 9 -14 -3 -7 -11 6 -10 3 2 -11 16 -18 16 -22 2
-42 -13 -19 -13 -21 0 -16 24 9 19 -90 -9 -155 -21 -50 -23 -53 -34 -33 -15
29 -14 45 4 38 8 -3 15 -1 15 4 0 6 -5 10 -11 10 -6 0 -7 5 -2 13 21 34 22
124 1 169 -10 20 -18 42 -18 48 0 18 -44 80 -57 80 -7 0 -13 5 -13 10 0 22
-107 60 -167 60 -63 0 -174 -32 -194 -56 -6 -8 -16 -14 -21 -14 -15 0 -82 -74
-99 -110 -58 -122 -68 -175 -44 -240 9 -25 19 -54 22 -65 4 -11 12 -26 19 -32
7 -7 21 -23 31 -35 21 -26 49 -46 76 -55 10 -3 16 -11 14 -17 -9 -27 -39 -13
-98 46 -35 34 -69 62 -74 63 -6 0 -22 11 -35 23 -32 30 -37 14 -10 -35 32 -60
43 -76 68 -96 12 -10 29 -25 36 -33 8 -8 18 -14 23 -14 4 0 19 -9 33 -20 29
-23 50 -26 50 -6 0 7 7 19 15 26 11 9 12 16 5 25 -5 6 -7 15 -3 18 9 10 25 9
19 -1 -5 -9 140 3 174 15 55 19 114 56 156 100 42 45 55 73 34 73 -5 0 -10 -4
-10 -8 0 -5 -16 -27 -35 -49 -50 -59 -151 -106 -237 -111 -60 -4 -72 -1 -129
29 -107 57 -156 159 -131 275 11 56 37 119 59 144 34 39 89 90 96 90 5 0 19 8
32 19 41 31 136 46 203 31 89 -20 175 -92 189 -159 13 -65 8 -158 -12 -200
-15 -33 -16 -45 -6 -64 6 -12 10 -15 7 -5 -7 25 6 30 21 8 12 -17 13 -24 1
-38 -30 -40 -54 -62 -65 -62 -7 0 -13 -3 -13 -8 0 -4 -22 -25 -50 -47 -28 -22
-45 -42 -39 -46 7 -4 4 -9 -6 -12 -9 -4 -13 -3 -10 3 8 13 -21 11 -70 -5 -26
-8 -33 -14 -20 -15 11 -1 14 -4 8 -7 -7 -2 -13 -13 -13 -23 0 -16 6 -18 38
-13 100 16 250 132 303 236 31 60 59 158 59 207 0 88 -46 196 -111 261 -45 45
-59 50 -35 13 22 -33 16 -53 -8 -28 -42 41 -87 56 -185 60 -53 1 -112 0 -131
-5z m437 -343 c-2 -13 -4 -3 -4 22 0 25 2 35 4 23 2 -13 2 -33 0 -45z m-137
-261 c0 -2 -10 -12 -22 -23 l-23 -19 19 23 c18 21 26 27 26 19z m-60 -51 c0
-2 -7 -7 -16 -10 -8 -3 -12 -2 -9 4 6 10 25 14 25 6z"/>
<path d="M920 3035 l0 -75 175 0 c96 0 175 -4 175 -9 0 -4 -48 -58 -107 -118
-60 -61 -147 -151 -195 -202 l-88 -92 0 -74 0 -75 29 0 c16 0 34 6 40 14 6 7
39 16 74 20 34 3 83 10 109 14 51 9 92 -2 117 -31 11 -14 36 -17 162 -17 l149
0 0 75 0 75 -210 2 -211 3 88 90 c49 50 139 144 201 208 l112 118 0 75 0 74
-310 0 -310 0 0 -75z"/>
<path d="M2500 2751 l0 -361 110 0 110 0 0 151 0 151 33 -7 c40 -9 72 -45 115
-127 19 -34 46 -85 61 -113 l28 -50 116 -3 c136 -3 139 0 89 85 -16 26 -31 56
-35 66 -19 50 -83 131 -114 143 -18 8 -33 16 -33 19 0 2 18 9 39 15 45 12 96
60 117 109 17 40 18 106 3 152 -16 47 -82 106 -128 113 -20 4 -143 9 -273 12
l-238 6 0 -361z m403 197 c28 -22 32 -69 7 -101 -20 -26 -26 -27 -106 -27
l-84 0 0 70 0 70 83 0 c51 0 90 -5 100 -12z"/>
<path d="M3471 3078 c-7 -18 -18 -47 -25 -63 -8 -17 -17 -45 -20 -62 -4 -18
-12 -35 -17 -38 -5 -4 -9 -15 -9 -25 0 -11 -9 -35 -20 -55 -11 -20 -20 -42
-20 -50 0 -9 -4 -23 -10 -33 -5 -9 -16 -35 -24 -57 -8 -22 -24 -65 -35 -95
-31 -78 -51 -134 -51 -142 0 -5 20 -8 44 -8 46 0 76 -18 76 -46 0 -11 10 -14
38 -12 38 3 45 14 68 106 3 9 38 12 134 12 l130 0 0 -25 c0 -22 -4 -25 -33
-25 -19 0 -62 9 -96 20 -78 26 -96 19 -70 -30 10 -19 21 -42 25 -50 3 -8 26
-30 51 -48 43 -33 45 -33 64 -16 13 12 37 18 70 18 44 1 54 -3 75 -27 21 -25
28 -27 61 -21 49 9 149 60 183 93 34 32 63 88 56 106 -3 8 2 19 10 26 8 7 27
32 41 56 21 37 24 48 15 69 -16 34 -32 29 -67 -19 -27 -36 -36 -42 -70 -43
-22 -1 -58 -7 -80 -12 -22 -6 -41 -9 -43 -8 -3 4 -36 90 -58 156 -9 25 -20 49
-25 55 -5 5 -9 18 -9 30 0 12 -4 25 -9 31 -5 5 -14 25 -19 44 -6 19 -20 60
-32 90 -12 30 -28 71 -35 90 l-13 35 -120 3 -119 3 -12 -33z m150 -220 c6 -24
18 -63 26 -87 9 -24 19 -59 23 -77 l8 -34 -80 0 c-71 0 -79 2 -74 18 37 129
69 222 76 222 5 0 14 -19 21 -42z m544 -229 c-4 -5 -12 -9 -18 -8 -9 0 -8 2 1
6 6 2 9 10 6 15 -4 7 -2 8 5 4 6 -4 9 -12 6 -17z m-43 -49 c-13 -10 -22 -23
-22 -27 1 -4 -6 -12 -15 -18 -11 -7 -18 -6 -24 4 -7 10 2 20 32 36 53 28 58
29 29 5z"/>
<path d="M1970 3002 c-73 -23 -107 -43 -153 -89 -61 -60 -80 -106 -81 -195 -1
-59 3 -80 17 -95 9 -11 17 -25 17 -31 0 -7 5 -12 12 -12 6 0 20 -8 31 -17 15
-14 37 -18 106 -18 75 1 92 4 134 28 91 52 137 105 164 192 51 162 -81 288
-247 237z m160 -27 c76 -39 102 -146 59 -237 -36 -75 -41 -82 -85 -115 -55
-42 -115 -63 -180 -63 -68 0 -116 21 -151 66 -23 31 -28 47 -28 95 0 33 6 64
13 71 6 6 12 20 12 29 0 25 103 125 152 148 54 24 166 28 208 6z"/>
<path d="M1879 2889 c-46 -27 -69 -66 -69 -119 0 -55 31 -105 81 -130 49 -25
69 -25 130 1 88 38 117 133 64 212 -14 20 -30 37 -35 37 -16 0 -11 -18 8 -32
11 -7 24 -30 31 -50 28 -86 -34 -162 -134 -162 -63 0 -106 30 -125 87 -30 87
35 162 141 162 32 0 52 3 46 7 -24 15 -102 8 -138 -13z"/>
<path d="M1866 2819 c-32 -38 -33 -70 -2 -106 20 -23 32 -28 70 -27 53 1 82
22 91 64 10 44 -26 100 -62 100 -3 0 6 -9 21 -21 20 -15 26 -29 26 -58 0 -42
-24 -68 -70 -78 -24 -4 -35 1 -60 25 -38 39 -38 66 1 103 17 16 27 29 21 29
-6 0 -22 -14 -36 -31z"/>
<path d="M2319 2758 c-6 -21 -6 -39 1 -43 5 -3 7 3 6 12 -2 10 2 21 8 25 8 5
7 8 -1 8 -7 0 -13 -1 -14 -2z"/>
<path d="M1641 2660 c0 -19 6 -46 14 -60 19 -32 19 -8 1 50 l-15 45 0 -35z"/>
<path d="M3251 2343 c-1 -17 16 -25 25 -12 4 7 3 9 -4 5 -5 -3 -13 0 -15 6 -4
9 -6 10 -6 1z"/>
<path d="M2355 2329 c-4 -6 -5 -12 -2 -15 2 -3 7 2 10 11 7 17 1 20 -8 4z"/>
<path d="M2236 2322 c-3 -5 1 -9 9 -9 8 0 12 4 9 9 -3 4 -7 8 -9 8 -2 0 -6 -4
-9 -8z"/>
<path d="M1840 2306 c0 -2 7 -7 16 -10 8 -3 12 -2 9 4 -6 10 -25 14 -25 6z"/>
<path d="M2200 2306 c0 -2 7 -9 15 -16 13 -11 14 -10 9 4 -5 14 -24 23 -24 12z"/>
<path d="M2546 2302 c-3 -5 1 -9 9 -9 8 0 12 4 9 9 -3 4 -7 8 -9 8 -2 0 -6 -4
-9 -8z"/>
<path d="M2598 2303 c6 -2 10 -8 8 -12 -3 -4 0 -13 6 -21 8 -12 9 -12 4 3 -3
10 0 17 7 17 8 0 6 4 -3 10 -8 5 -19 9 -25 9 -5 0 -4 -3 3 -6z"/>
<path d="M1580 2297 c0 -3 12 -12 26 -22 15 -9 23 -12 20 -6 -7 11 -46 35 -46
28z"/>
<path d="M2540 2266 c0 -2 7 -7 16 -10 8 -3 12 -2 9 4 -6 10 -25 14 -25 6z"/>
<path d="M1135 2241 c-3 -5 -2 -12 3 -15 5 -3 9 1 9 9 0 17 -3 19 -12 6z"/>
<path d="M1365 2241 c-3 -5 -2 -12 3 -15 5 -3 9 1 9 9 0 17 -3 19 -12 6z"/>
<path d="M1710 2239 c0 -5 5 -7 10 -4 6 3 10 8 10 11 0 2 -4 4 -10 4 -5 0 -10
-5 -10 -11z"/>
<path d="M2629 2223 c-13 -16 -12 -17 4 -4 16 13 21 21 13 21 -2 0 -10 -8 -17
-17z"/>
<path d="M1267 2212 c-15 -16 -15 -19 -2 -19 8 0 13 3 10 5 -3 3 0 11 6 19 17
20 5 16 -14 -5z"/>
<path d="M1805 2220 c-3 -5 -12 -7 -19 -4 -8 3 -17 0 -22 -7 -4 -8 -3 -10 5
-5 6 4 20 2 29 -5 9 -7 14 -9 10 -5 -4 5 -3 15 3 23 6 7 9 13 6 13 -3 0 -8 -4
-12 -10z"/>
<path d="M2980 2226 c0 -2 7 -7 16 -10 8 -3 12 -2 9 4 -6 10 -25 14 -25 6z"/>
<path d="M3779 2213 c-13 -16 -12 -17 4 -4 16 13 21 21 13 21 -2 0 -10 -8 -17
-17z"/>
<path d="M3199 2209 c-6 -4 1 -6 15 -6 15 0 28 2 30 6 3 4 -4 7 -15 7 -11 0
-25 -3 -30 -7z"/>
<path d="M1603 2185 c0 -8 4 -12 9 -9 5 3 6 10 3 15 -9 13 -12 11 -12 -6z"/>
<path d="M1651 2181 c-8 -5 -9 -11 -3 -15 5 -3 12 1 16 9 6 17 6 18 -13 6z"/>
<path d="M2374 2150 c0 -13 4 -16 10 -10 7 7 7 13 0 20 -6 6 -10 3 -10 -10z"/>
<path d="M3706 2153 c-6 -14 -5 -15 5 -6 7 7 10 15 7 18 -3 3 -9 -2 -12 -12z"/>
<path d="M2970 2151 c0 -10 19 -25 25 -20 1 2 -3 10 -11 17 -8 7 -14 8 -14 3z"/>
<path d="M1625 2131 c4 -8 2 -17 -6 -22 -9 -6 -10 -9 -2 -9 19 0 27 21 13 33
-10 9 -11 9 -5 -2z"/>
<path d="M1710 2135 c0 -7 30 -13 34 -7 3 4 -4 9 -15 9 -10 1 -19 0 -19 -2z"/>
<path d="M1299 2128 c-8 -15 -3 -45 6 -45 6 0 12 6 12 13 0 7 -5 10 -10 7 -6
-4 -8 0 -4 10 5 13 1 25 -4 15z"/>
<path d="M1356 2108 c3 -5 10 -6 15 -3 13 9 11 12 -6 12 -8 0 -12 -4 -9 -9z"/>
<path d="M1895 2111 c-3 -5 -2 -12 3 -15 5 -3 9 1 9 9 0 17 -3 19 -12 6z"/>
<path d="M3790 2107 c0 -2 6 -10 14 -16 11 -9 16 -9 22 1 4 7 4 10 -1 6 -4 -4
-14 -3 -22 3 -7 6 -13 9 -13 6z"/>
<path d="M1335 2090 c3 -5 8 -10 11 -10 2 0 4 5 4 10 0 6 -5 10 -11 10 -5 0
-7 -4 -4 -10z"/>
<path d="M2378 2093 c6 -2 9 -10 6 -15 -4 -7 -2 -8 5 -4 13 9 5 26 -12 25 -9
0 -8 -2 1 -6z"/>
<path d="M1216 2073 c-6 -14 -5 -15 5 -6 7 7 10 15 7 18 -3 3 -9 -2 -12 -12z"/>
<path d="M1705 2081 c-3 -5 -2 -12 3 -15 5 -3 9 1 9 9 0 17 -3 19 -12 6z"/>
<path d="M2585 2080 c3 -5 8 -10 11 -10 2 0 4 5 4 10 0 6 -5 10 -11 10 -5 0
-7 -4 -4 -10z"/>
<path d="M2716 2077 c3 -10 9 -15 12 -12 3 3 0 11 -7 18 -10 9 -11 8 -5 -6z"/>
<path d="M3026 2078 c3 -5 10 -6 15 -3 13 9 11 12 -6 12 -8 0 -12 -4 -9 -9z"/>
<path d="M3775 2079 c-4 -6 -5 -12 -2 -15 2 -3 7 2 10 11 7 17 1 20 -8 4z"/>
<path d="M3000 2071 c0 -6 4 -13 10 -16 6 -3 7 1 4 9 -7 18 -14 21 -14 7z"/>
<path d="M3301 2067 c-8 -10 -7 -14 2 -14 8 0 14 6 14 14 0 7 -1 13 -2 13 -2
0 -8 -6 -14 -13z"/>
<path d="M817 1942 c-21 -23 -21 -41 -1 -70 19 -28 36 -28 53 1 14 22 13 22
-6 4 -19 -17 -22 -17 -37 -2 -19 19 -20 29 -6 56 11 20 35 25 43 9 3 -6 4 -5
3 2 -4 21 -31 20 -49 0z"/>
<path d="M912 1931 c-16 -44 -15 -52 3 -45 8 4 22 1 30 -6 19 -16 18 -5 -4 45
l-18 39 -11 -33z m21 -11 c3 -12 0 -20 -8 -20 -8 0 -11 8 -8 20 3 11 7 20 8
20 1 0 5 -9 8 -20z"/>
<path d="M960 1956 c0 -9 37 -12 55 -5 15 6 11 8 -17 8 -21 1 -38 -1 -38 -3z"/>
<path d="M1042 1908 c3 -49 5 -53 31 -56 15 -2 27 1 27 7 0 6 -9 11 -20 11
-17 0 -20 7 -20 39 0 33 4 40 23 44 15 3 12 5 -11 6 l-33 1 3 -52z"/>
<path d="M1149 1953 c13 -3 26 -14 29 -25 3 -15 7 -16 13 -7 12 19 -9 39 -40
38 -25 -2 -25 -2 -2 -6z"/>
<path d="M1223 1910 c0 -30 2 -43 4 -27 2 15 2 39 0 55 -2 15 -4 2 -4 -28z"/>
<path d="M1250 1910 c0 -29 2 -51 4 -49 8 8 10 88 3 95 -4 4 -7 -17 -7 -46z"/>
<path d="M1300 1928 c-1 -31 -1 -32 -15 -14 -22 29 -18 6 5 -29 l20 -30 0 53
c0 28 -2 52 -5 52 -3 0 -5 -15 -5 -32z"/>
<path d="M1347 1942 c-24 -27 -21 -59 8 -78 20 -13 28 -14 40 -4 21 17 19 50
-2 49 -11 0 -13 -3 -5 -6 22 -9 13 -33 -12 -33 -39 0 -50 52 -15 70 15 9 24 8
35 -1 12 -10 13 -9 8 5 -8 21 -37 20 -57 -2z"/>
<path d="M1528 1938 c-2 -13 -1 -36 3 -53 5 -24 7 -20 8 23 1 54 -4 68 -11 30z"/>
<path d="M1576 1953 c-11 -11 -7 -20 9 -20 8 0 15 4 15 8 0 11 -16 20 -24 12z"/>
<path d="M1640 1953 c0 -5 12 -9 28 -8 20 0 27 -5 26 -17 -1 -10 3 -18 8 -18
5 0 8 10 6 23 -2 17 -11 23 -35 25 -18 2 -33 -1 -33 -5z"/>
<path d="M1733 1910 c0 -30 2 -43 4 -27 2 15 2 39 0 55 -2 15 -4 2 -4 -28z"/>
<path d="M1776 1944 c-4 -9 -4 -19 -1 -22 3 -3 5 0 5 6 0 7 5 12 10 12 6 0 10
-7 10 -17 0 -9 3 -14 6 -10 8 7 -5 47 -16 47 -4 0 -11 -7 -14 -16z"/>
<path d="M1842 1904 c2 -58 2 -59 5 -10 4 44 5 47 18 30 8 -11 15 -14 15 -8 0
6 -9 19 -20 29 -20 18 -20 18 -18 -41z"/>
<path d="M1900 1918 c0 -32 -3 -39 -10 -28 -5 8 -10 11 -10 5 1 -5 7 -19 15
-29 14 -18 15 -15 15 37 0 31 -2 57 -5 57 -3 0 -5 -19 -5 -42z"/>
<path d="M1973 1890 c0 -41 2 -58 4 -37 2 20 2 54 0 75 -2 20 -4 3 -4 -38z"/>
<path d="M2032 1908 c1 -43 2 -46 5 -15 l4 38 19 -23 c11 -13 19 -19 20 -14 0
4 -11 21 -25 38 l-25 30 2 -54z"/>
<path d="M2089 1915 c-5 -50 -4 -63 7 -53 3 3 4 28 2 54 l-3 49 -6 -50z"/>
<path d="M2225 1953 c11 -3 24 -10 28 -17 6 -7 7 -6 4 4 -2 8 -14 16 -28 17
-19 1 -20 1 -4 -4z"/>
<path d="M2283 1910 c1 -27 5 -50 9 -50 5 0 8 23 8 50 0 28 -4 50 -9 50 -5 0
-9 -22 -8 -50z"/>
<path d="M2350 1906 c0 -54 0 -55 28 -50 39 7 43 15 34 60 -6 33 -12 40 -35
42 -26 3 -27 2 -27 -52z m45 22 c0 -9 4 -20 8 -24 15 -16 6 -34 -18 -34 -23 0
-25 4 -25 41 0 33 3 40 18 37 9 -2 17 -11 17 -20z"/>
<path d="M2442 1935 c-12 -26 -3 -67 17 -79 15 -10 49 11 56 34 8 26 -19 70
-44 70 -10 0 -23 -11 -29 -25z m53 -1 c25 -26 1 -79 -31 -67 -17 6 -23 34 -13
61 10 26 22 28 44 6z"/>
<path d="M2530 1951 c0 -5 5 -13 10 -16 6 -3 10 -2 10 4 0 5 -4 13 -10 16 -5
3 -10 2 -10 -4z"/>
<path d="M2712 1953 c13 -3 18 -18 21 -56 l3 -52 2 52 c2 40 6 53 20 56 9 3
-1 5 -23 5 -22 0 -32 -2 -23 -5z"/>
<path d="M2842 1918 c-2 -45 -4 -48 -29 -48 -25 -1 -26 -2 -9 -11 29 -18 48 9
43 62 l-4 44 -1 -47z"/>
<path d="M2870 1908 c0 -28 2 -49 4 -47 8 9 13 99 5 99 -5 0 -9 -23 -9 -52z"/>
<path d="M2936 1944 c-4 -9 -4 -19 -1 -22 3 -3 6 1 7 9 0 8 4 -6 8 -31 l7 -45
1 53 c2 51 -9 69 -22 36z"/>
<path d="M2981 1908 c1 -29 4 -43 6 -31 2 12 14 24 29 27 38 10 24 56 -18 56
-15 0 -18 -8 -17 -52z m44 22 c0 -8 -8 -16 -17 -18 -13 -2 -18 3 -18 18 0 15
5 20 18 18 9 -2 17 -10 17 -18z"/>
<path d="M3060 1910 c0 -54 14 -69 48 -54 14 6 12 8 -10 12 -25 3 -28 7 -28
42 0 35 3 39 28 43 25 4 25 4 -5 6 l-33 1 0 -50z"/>
<path d="M3140 1905 c0 -32 2 -56 4 -54 8 7 10 98 3 105 -4 4 -7 -19 -7 -51z"/>
<path d="M3190 1928 c-1 -31 -1 -32 -15 -14 -22 29 -18 6 5 -29 l20 -30 0 53
c0 28 -2 52 -5 52 -3 0 -5 -15 -5 -32z"/>
<path d="M3239 1943 c-13 -15 -12 -15 9 -4 18 10 26 10 38 0 12 -10 13 -9 8 5
-8 21 -38 21 -55 -1z"/>
<path d="M3430 1953 c0 -5 11 -9 25 -9 14 -1 22 2 19 7 -6 11 -44 12 -44 2z"/>
<path d="M3502 1908 c1 -51 2 -51 5 -10 2 23 8 40 13 37 6 -3 7 1 4 9 -13 33
-24 14 -22 -36z"/>
<path d="M3558 1918 c-3 -24 -1 -50 3 -58 5 -9 9 7 9 43 0 67 -6 75 -12 15z"/>
<path d="M3612 1935 c-17 -36 -15 -45 8 -45 10 0 23 -8 29 -17 18 -34 17 -8
-1 27 -11 19 -17 27 -14 18 3 -12 0 -18 -9 -18 -18 0 -18 5 -4 32 6 11 9 22 6
24 -2 2 -9 -7 -15 -21z"/>
<path d="M3687 1942 c-21 -23 -21 -41 -1 -70 19 -28 36 -28 53 1 14 22 13 22
-6 4 -19 -17 -22 -17 -37 -2 -19 19 -20 29 -6 56 11 20 35 25 43 9 3 -6 4 -5
3 2 -4 21 -31 20 -49 0z"/>
<path d="M3809 1943 c-13 -16 -12 -17 4 -4 16 13 21 21 13 21 -2 0 -10 -8 -17
-17z"/>
<path d="M3880 1905 c0 -57 5 -62 45 -45 18 8 17 9 -7 9 -26 1 -28 4 -28 42 0
39 1 41 26 35 17 -5 23 -3 19 4 -3 5 -17 10 -31 10 -23 0 -24 -3 -24 -55z"/>
<path d="M3974 1949 c-4 -7 0 -9 14 -5 12 4 26 1 36 -9 9 -9 16 -13 16 -8 0
27 -52 44 -66 22z"/>
<path d="M2141 1932 c-6 -11 -16 -33 -21 -49 -9 -26 -9 -26 4 -9 10 12 23 17
36 13 23 -6 25 7 6 42 -13 24 -14 24 -25 3z m18 -31 c-15 -5 -22 6 -14 19 6 9
10 9 16 -1 5 -8 4 -15 -2 -18z"/>
<path d="M2560 1924 c-11 -12 -11 -18 2 -30 13 -13 15 -12 15 16 0 35 0 35
-17 14z"/>
<path d="M4073 1911 c0 -26 2 -27 15 -14 13 13 13 16 0 29 -13 13 -15 11 -15
-15z"/>
<path d="M2895 1898 c4 -13 11 -27 16 -33 5 -5 4 5 -2 23 -12 36 -24 44 -14
10z"/>
<path d="M3530 1911 c0 -5 5 -13 10 -16 6 -3 10 -2 10 4 0 5 -4 13 -10 16 -5
3 -10 2 -10 -4z"/>
<path d="M1166 1893 c4 -12 12 -28 20 -34 20 -17 17 2 -6 31 -18 24 -19 24
-14 3z"/>
<path d="M1557 1880 c-5 -22 -4 -23 8 -7 15 22 24 21 42 0 14 -17 14 -17 9 0
-3 10 -6 22 -6 25 0 4 -11 7 -24 7 -18 0 -26 -7 -29 -25z"/>
<path d="M1679 1892 c6 -12 16 -24 22 -28 8 -4 8 -1 0 14 -6 12 -16 24 -22 28
-8 4 -8 1 0 -14z"/>
<path d="M2247 1891 c7 -26 -12 -35 -31 -15 -9 8 -16 11 -16 6 0 -16 29 -35
45 -28 16 6 21 56 6 56 -5 0 -7 -8 -4 -19z"/>
<path d="M3278 1903 c6 -2 12 -11 12 -19 0 -17 -46 -19 -53 -1 -4 9 -6 9 -6 0
-2 -20 38 -36 55 -22 20 16 18 49 -3 48 -11 0 -13 -3 -5 -6z"/>
<path d="M3468 1899 c19 -20 14 -29 -15 -29 -20 0 -24 -3 -16 -11 8 -8 17 -8
33 1 23 12 24 41 0 48 -12 4 -13 2 -2 -9z"/>
<path d="M1760 1879 c-7 -11 -9 -23 -7 -26 3 -2 8 5 12 16 9 28 41 27 48 -1 4
-12 9 -19 12 -16 12 11 -15 48 -35 48 -11 0 -24 -9 -30 -21z"/>
<path d="M3800 1891 c0 -5 7 -15 17 -22 15 -13 15 -12 4 9 -12 23 -21 28 -21
13z"/>
<path d="M4030 1885 c0 -10 -10 -15 -32 -15 -27 -1 -30 -2 -16 -11 21 -12 58
4 58 26 0 8 -2 15 -5 15 -3 0 -5 -7 -5 -15z"/>
<path d="M2536 1873 c-6 -14 -5 -15 5 -6 7 7 10 15 7 18 -3 3 -9 -2 -12 -12z"/>
<path d="M4100 1881 c0 -6 4 -13 10 -16 6 -3 7 1 4 9 -7 18 -14 21 -14 7z"/>
</g>
</svg>
